<svg version="1.1" xmlns="http://www.w3.org/2000/svg" viewBox="0 0 1022.8905769608579 1005.7789628396957" width="1022.8905769608579" height="1005.7789628396957">
  <!-- svg-source:excalidraw -->
  
  <defs>
    <style class="style-fonts">
      @font-face {
        font-family: "Virgil";
        src: url("https://excalidraw.com/Virgil.woff2");
      }
      @font-face {
        font-family: "Cascadia";
        src: url("https://excalidraw.com/Cascadia.woff2");
      }
    </style>
    
  </defs>
  <rect x="0" y="0" width="1022.8905769608579" height="1005.7789628396957" fill="#ffffff"></rect><g stroke-linecap="round" transform="translate(224.98013033576444 178.82146648646028) rotate(0 52.79418580542915 17.7990041307541)"><path d="M0.05 0.13 L106.09 0.11 L105.1 36.03 L0.28 35.88" stroke="none" stroke-width="0" fill="#ffec99"></path><path d="M0 0 C40.33 -0.37, 81.96 -0.12, 105.59 0 M0 0 C21.72 -0.24, 43.62 -0.32, 105.59 0 M105.59 0 C106.11 9.57, 105.93 18.66, 105.59 35.6 M105.59 0 C105.71 7.7, 105.84 14.81, 105.59 35.6 M105.59 35.6 C76.93 35.11, 47.38 35.7, 0 35.6 M105.59 35.6 C77.3 35.39, 49.11 35.7, 0 35.6 M0 35.6 C0.07 27.93, 0.56 19.85, 0 0 M0 35.6 C0.13 27.8, 0.03 20.16, 0 0" stroke="#1e1e1e" stroke-width="1" fill="none"></path></g><g stroke-linecap="round" transform="translate(846.9176565928788 186.80679467382015) rotate(0 52.79418580542921 17.7990041307541)"><path d="M0.51 -0.28 L106.08 0.31 L105.89 35.8 L0.02 35.84" stroke="none" stroke-width="0" fill="#b2f2bb"></path><path d="M0 0 C33.34 0.03, 66.22 -0.32, 105.59 0 M0 0 C24.78 0.04, 49.08 0.44, 105.59 0 M105.59 0 C105.12 11.08, 106.08 22.86, 105.59 35.6 M105.59 0 C105.77 11.19, 105.3 22.84, 105.59 35.6 M105.59 35.6 C81.86 36.07, 57.45 35.3, 0 35.6 M105.59 35.6 C84.43 35.28, 63.3 35.5, 0 35.6 M0 35.6 C0.33 25.81, 0.45 15.69, 0 0 M0 35.6 C-0.14 23.3, -0.12 10.83, 0 0" stroke="#1e1e1e" stroke-width="1" fill="none"></path></g><g stroke-linecap="round" transform="translate(714.5581064762746 185.56130189502528) rotate(0 52.79418580542915 17.7990041307541)"><path d="M-0.52 -0.42 L106.13 0.53 L106.13 35.68 L-0.29 36.11" stroke="none" stroke-width="0" fill="#b2f2bb"></path><path d="M0 0 C33.24 0.61, 65.95 -0.02, 105.59 0 M0 0 C41.72 0.25, 83.24 0.22, 105.59 0 M105.59 0 C105.34 8.48, 105.3 15.49, 105.59 35.6 M105.59 0 C105.83 9.61, 105.76 19.54, 105.59 35.6 M105.59 35.6 C78.02 36, 50.47 35.64, 0 35.6 M105.59 35.6 C70.57 35.31, 34.93 35.42, 0 35.6 M0 35.6 C-0.1 26.82, -0.29 17.17, 0 0 M0 35.6 C-0.27 27.52, -0.17 20.25, 0 0" stroke="#1e1e1e" stroke-width="1" fill="none"></path></g><g stroke-linecap="round" transform="translate(94.40442573747669 178.85703201171498) rotate(0 52.79418580542915 17.7990041307541)"><path d="M-0.15 -0.32 L105.82 0.14 L105.54 36.02 L-0.52 36.05" stroke="none" stroke-width="0" fill="#b2f2bb"></path><path d="M0 0 C32.48 -0.33, 64.02 0.6, 105.59 0 M0 0 C34.52 -0.07, 69.43 -0.17, 105.59 0 M105.59 0 C105.23 13.83, 105.27 26.76, 105.59 35.6 M105.59 0 C105.47 7.52, 105.39 14.71, 105.59 35.6 M105.59 35.6 C82.77 35.04, 60.12 35.29, 0 35.6 M105.59 35.6 C66.74 35.62, 27.84 35.59, 0 35.6 M0 35.6 C-0.47 21.45, -0.07 8.65, 0 0 M0 35.6 C-0.08 23.37, -0.05 11.07, 0 0" stroke="#1e1e1e" stroke-width="1" fill="none"></path></g><g stroke-linecap="round" transform="translate(10 10) rotate(0 190.02888094387725 117.67844839865376)"><path d="M32 0 C136.52 -1.3, 239.84 -1.31, 348.06 0 M32 0 C102.4 1.99, 172.05 2.26, 348.06 0 M348.06 0 C371 -1.48, 381.64 12.02, 380.06 32 M348.06 0 C371.56 0.19, 379.51 9.08, 380.06 32 M380.06 32 C380.11 97.98, 378.14 160.71, 380.06 203.36 M380.06 32 C379.21 88.03, 378.1 141.13, 380.06 203.36 M380.06 203.36 C381.01 226.38, 370.74 235.1, 348.06 235.36 M380.06 203.36 C379.85 223.5, 369.32 236.25, 348.06 235.36 M348.06 235.36 C251 234.5, 154.18 233.36, 32 235.36 M348.06 235.36 C238.84 234.55, 129.53 234.77, 32 235.36 M32 235.36 C11.75 235.23, 1.95 225.88, 0 203.36 M32 235.36 C12.85 235.81, -2.25 225.47, 0 203.36 M0 203.36 C1.92 142.44, -0.81 79.1, 0 32 M0 203.36 C1.09 164.99, 1.46 126.35, 0 32 M0 32 C-0.29 11.07, 11.44 0.97, 32 0 M0 32 C-0.56 8.72, 10.13 -0.6, 32 0" stroke="#1e1e1e" stroke-width="2" fill="none"></path></g><g transform="translate(15 43.67844839865376) rotate(0 164.0625 84.00000000000003)"><text x="0" y="0" font-family="Cascadia, Segoe UI Emoji" font-size="28px" fill="#1e1e1e" text-anchor="start" style="white-space: pre;" direction="ltr" dominant-baseline="text-before-edge">WITH cte1 AS (</text><text x="0" y="33.6" font-family="Cascadia, Segoe UI Emoji" font-size="28px" fill="#1e1e1e" text-anchor="start" style="white-space: pre;" direction="ltr" dominant-baseline="text-before-edge">    SELECT * FROM t1</text><text x="0" y="67.2" font-family="Cascadia, Segoe UI Emoji" font-size="28px" fill="#1e1e1e" text-anchor="start" style="white-space: pre;" direction="ltr" dominant-baseline="text-before-edge">)</text><text x="0" y="100.80000000000001" font-family="Cascadia, Segoe UI Emoji" font-size="28px" fill="#1e1e1e" text-anchor="start" style="white-space: pre;" direction="ltr" dominant-baseline="text-before-edge">SELECT *</text><text x="0" y="134.4" font-family="Cascadia, Segoe UI Emoji" font-size="28px" fill="#1e1e1e" text-anchor="start" style="white-space: pre;" direction="ltr" dominant-baseline="text-before-edge">FROM cte1 a, cte1 b;</text></g><g stroke-linecap="round" transform="translate(15.432536844440278 286.06872506222874) rotate(0 86.39676864310104 177.36618106702497)"><path d="M1.43 -1.66 L171.99 -1.84 L171.58 356.48 L1.44 354.6" stroke="none" stroke-width="0" fill="#b2f2bb"></path><path d="M0 0 C65.93 0.78, 134.05 -0.2, 172.79 0 M0 0 C59.91 -0.23, 117.8 -0.99, 172.79 0 M172.79 0 C171.53 116.27, 170.99 236.11, 172.79 354.73 M172.79 0 C170.15 103.33, 170.16 206.52, 172.79 354.73 M172.79 354.73 C118.7 354.63, 65.48 355.34, 0 354.73 M172.79 354.73 C122.19 352.57, 72.24 354.14, 0 354.73 M0 354.73 C-0.45 236.72, 0.34 119.52, 0 0 M0 354.73 C1.52 239.64, 1.82 124.63, 0 0" stroke="#1e1e1e" stroke-width="2" fill="none"></path></g><g transform="translate(69.01680548754132 291.06872506222874) rotate(0 32.8125 33.60000000000002)"><text x="32.8125" y="0" font-family="Cascadia, Segoe UI Emoji" font-size="28px" fill="#1e1e1e" text-anchor="middle" style="white-space: pre;" direction="ltr" dominant-baseline="text-before-edge">cte1</text><text x="32.8125" y="33.6" font-family="Cascadia, Segoe UI Emoji" font-size="28px" fill="#1e1e1e" text-anchor="middle" style="white-space: pre;" direction="ltr" dominant-baseline="text-before-edge">a</text></g><g stroke-linecap="round" transform="translate(243.37284301628722 287.25401807358594) rotate(0 86.39676864310104 177.3661810670249)"><path d="M-1.61 -0.58 L172.84 -1.91 L171.5 353.07 L1.33 353.82" stroke="none" stroke-width="0" fill="#ffec99"></path><path d="M0 0 C67.83 -2.18, 132.69 0.32, 172.79 0 M0 0 C66.06 1.08, 131.08 2.04, 172.79 0 M172.79 0 C174.63 76.71, 173.75 153.27, 172.79 354.73 M172.79 0 C172.81 126.89, 172.85 253.45, 172.79 354.73 M172.79 354.73 C126.2 352.86, 77.45 353.46, 0 354.73 M172.79 354.73 C131.92 354.42, 90.11 354.68, 0 354.73 M0 354.73 C-1.62 280.65, -0.42 205.34, 0 0 M0 354.73 C1.04 233.61, 0.48 112.82, 0 0" stroke="#1e1e1e" stroke-width="2" fill="none"></path></g><g transform="translate(296.95711165938826 292.25401807358594) rotate(0 32.8125 33.60000000000002)"><text x="32.8125" y="0" font-family="Cascadia, Segoe UI Emoji" font-size="28px" fill="#1e1e1e" text-anchor="middle" style="white-space: pre;" direction="ltr" dominant-baseline="text-before-edge">cte1</text><text x="32.8125" y="33.6" font-family="Cascadia, Segoe UI Emoji" font-size="28px" fill="#1e1e1e" text-anchor="middle" style="white-space: pre;" direction="ltr" dominant-baseline="text-before-edge">b</text></g><g stroke-linecap="round"><g transform="translate(158.5471743278357 213.0383770713537) rotate(0 -11.80507069092178 33.814007322105454)"><path d="M0 0 C-7.15 20.67, -14.44 42.09, -23.61 67.63 M0 0 C-6.81 19.99, -13.99 39.77, -23.61 67.63" stroke="#1e1e1e" stroke-width="2" fill="none"></path></g><g transform="translate(158.5471743278357 213.0383770713537) rotate(0 -11.80507069092178 33.814007322105454)"><path d="M-24.02 37.63 C-23.72 46.7, -23.6 56.5, -23.61 67.63 M-24.02 37.63 C-23.84 46.52, -23.95 55.23, -23.61 67.63" stroke="#1e1e1e" stroke-width="2" fill="none"></path></g><g transform="translate(158.5471743278357 213.0383770713537) rotate(0 -11.80507069092178 33.814007322105454)"><path d="M-4.65 44.38 C-10.31 51.35, -16.17 59.07, -23.61 67.63 M-4.65 44.38 C-10.17 51.31, -15.98 58.03, -23.61 67.63" stroke="#1e1e1e" stroke-width="2" fill="none"></path></g></g><mask></mask><g stroke-linecap="round" transform="translate(154.21864526660352 724.8481480492607) rotate(0 67.527664429472 135.46540739521754)"><path d="M0.26 1.57 L136.32 -0.47 L135.09 270.53 L1.96 271.64" stroke="none" stroke-width="0" fill="#a5d8ff"></path><path d="M0 0 C45.44 3.16, 93.51 1.95, 135.06 0 M0 0 C26.64 0.83, 54.27 -0.48, 135.06 0 M135.06 0 C135.8 75.57, 136.15 153.16, 135.06 270.93 M135.06 0 C134.42 78.48, 134.53 157.33, 135.06 270.93 M135.06 270.93 C88.66 272.5, 42.37 271.66, 0 270.93 M135.06 270.93 C107.5 272.15, 78.6 272.02, 0 270.93 M0 270.93 C0.09 194.21, -2.25 117.27, 0 0 M0 270.93 C0.53 206.3, 0.09 141.35, 0 0" stroke="#1e1e1e" stroke-width="2" fill="none"></path></g><g transform="translate(205.3400596960755 729.8481480492607) rotate(0 16.40625 16.799999999999955)"><text x="16.40625" y="0" font-family="Cascadia, Segoe UI Emoji" font-size="28px" fill="#1e1e1e" text-anchor="middle" style="white-space: pre;" direction="ltr" dominant-baseline="text-before-edge">t1</text></g><g stroke-linecap="round"><g transform="translate(20.724676640899304 654.0378348554794) rotate(0 61.39171121921845 117.10816263870538)"><path d="M0 0 C-2.36 80.8, -2.9 161.42, 0.46 233.58 M0.46 233.58 C29.33 232.61, 60.87 234.66, 124.7 234.13" stroke="#1e1e1e" stroke-width="2.5" fill="none" stroke-dasharray="8 10"></path></g><g transform="translate(20.724676640899304 654.0378348554794) rotate(0 61.39171121921845 117.10816263870538)"><path d="M96.49 244.35 C105.62 240.77, 114.54 237.11, 124.7 234.13" stroke="#1e1e1e" stroke-width="2.5" fill="none"></path></g><g transform="translate(20.724676640899304 654.0378348554794) rotate(0 61.39171121921845 117.10816263870538)"><path d="M96.52 223.83 C105.44 227.34, 114.35 230.78, 124.7 234.13" stroke="#1e1e1e" stroke-width="2.5" fill="none"></path></g></g><mask></mask><g transform="translate(35.46419078379449 745.4050216463423) rotate(0 41.015625 33.60000000000002)"><text x="41.015625" y="0" font-family="Cascadia, Segoe UI Emoji" font-size="28px" fill="#1e1e1e" text-anchor="middle" style="white-space: pre;" direction="ltr" dominant-baseline="text-before-edge">Built</text><text x="41.015625" y="33.6" font-family="Cascadia, Segoe UI Emoji" font-size="28px" fill="#1e1e1e" text-anchor="middle" style="white-space: pre;" direction="ltr" dominant-baseline="text-before-edge">on</text></g><g stroke-linecap="round"><g transform="translate(418.62577637545803 650.3840604277215) rotate(0 -60.78253675364115 119.55406261430448)"><path d="M0 0 C2.12 83.52, 2.87 166.26, 0.86 238.45 M0.86 238.45 C-43.06 239.33, -88.65 239.06, -123.6 239.09" stroke="#1e1e1e" stroke-width="2.5" fill="none" stroke-dasharray="8 10"></path></g><g transform="translate(418.62577637545803 650.3840604277215) rotate(0 -60.78253675364115 119.55406261430448)"><path d="M-95.41 228.84 C-105.14 233.83, -114.35 237.72, -123.6 239.09" stroke="#1e1e1e" stroke-width="2.5" fill="none"></path></g><g transform="translate(418.62577637545803 650.3840604277215) rotate(0 -60.78253675364115 119.55406261430448)"><path d="M-95.42 249.36 C-105.34 247.26, -114.55 244.05, -123.6 239.09" stroke="#1e1e1e" stroke-width="2.5" fill="none"></path></g></g><mask></mask><g transform="translate(322.55688137382106 738.6558793623452) rotate(0 41.015625 33.60000000000002)"><text x="41.015625" y="0" font-family="Cascadia, Segoe UI Emoji" font-size="28px" fill="#1e1e1e" text-anchor="middle" style="white-space: pre;" direction="ltr" dominant-baseline="text-before-edge">Built</text><text x="41.015625" y="33.6" font-family="Cascadia, Segoe UI Emoji" font-size="28px" fill="#1e1e1e" text-anchor="middle" style="white-space: pre;" direction="ltr" dominant-baseline="text-before-edge">on</text></g><g stroke-linecap="round"><g transform="translate(293.65706626001594 213.51792883321514) rotate(0 13.336595435230294 31.09214374077726)"><path d="M0 0 C8.04 18.64, 16.26 38.11, 26.67 62.18 M0 0 C7.7 17.84, 15.79 35.87, 26.67 62.18" stroke="#1e1e1e" stroke-width="2" fill="none"></path></g><g transform="translate(293.65706626001594 213.51792883321514) rotate(0 13.336595435230294 31.09214374077726)"><path d="M6.29 40.17 C12.33 46.66, 18.65 53.97, 26.67 62.18 M6.29 40.17 C12.09 46.38, 18.35 52.78, 26.67 62.18" stroke="#1e1e1e" stroke-width="2" fill="none"></path></g><g transform="translate(293.65706626001594 213.51792883321514) rotate(0 13.336595435230294 31.09214374077726)"><path d="M25.21 32.22 C25.55 41.07, 26.15 50.8, 26.67 62.18 M25.21 32.22 C25.54 40.71, 26.33 49.41, 26.67 62.18" stroke="#1e1e1e" stroke-width="2" fill="none"></path></g></g><mask></mask><g stroke-linecap="round" transform="translate(632.8328150731033 17.93051635091524) rotate(0 190.02888094387725 117.67844839865376)"><path d="M32 0 C98.3 -1.72, 166.19 -1.99, 348.06 0 M32 0 C152.61 0.14, 272.75 -0.04, 348.06 0 M348.06 0 C371 0.68, 378.41 10.74, 380.06 32 M348.06 0 C368.69 1.68, 378.18 11.36, 380.06 32 M380.06 32 C379.63 96.61, 380.13 159.7, 380.06 203.36 M380.06 32 C378.66 86.78, 378.79 140.58, 380.06 203.36 M380.06 203.36 C378.54 226.1, 369.92 233.48, 348.06 235.36 M380.06 203.36 C381.77 226.31, 370.67 236.78, 348.06 235.36 M348.06 235.36 C245.49 232.8, 141.86 233.96, 32 235.36 M348.06 235.36 C234.6 235.73, 121.53 236.65, 32 235.36 M32 235.36 C10.94 235.02, 1.97 222.91, 0 203.36 M32 235.36 C9.49 236.39, 0.09 224.68, 0 203.36 M0 203.36 C0.62 166.07, 0.14 131.09, 0 32 M0 203.36 C-0.48 148.76, 0.42 95.34, 0 32 M0 32 C-0.51 8.93, 9.02 -0.41, 32 0 M0 32 C1.16 8.69, 8.65 -1.15, 32 0" stroke="#1e1e1e" stroke-width="2" fill="none"></path></g><g transform="translate(637.8328150731033 51.608964749569054) rotate(0 164.06249999999994 84)"><text x="0" y="0" font-family="Cascadia, Segoe UI Emoji" font-size="28px" fill="#1e1e1e" text-anchor="start" style="white-space: pre;" direction="ltr" dominant-baseline="text-before-edge">WITH cte1 AS (</text><text x="0" y="33.6" font-family="Cascadia, Segoe UI Emoji" font-size="28px" fill="#1e1e1e" text-anchor="start" style="white-space: pre;" direction="ltr" dominant-baseline="text-before-edge">    SELECT * FROM t1</text><text x="0" y="67.2" font-family="Cascadia, Segoe UI Emoji" font-size="28px" fill="#1e1e1e" text-anchor="start" style="white-space: pre;" direction="ltr" dominant-baseline="text-before-edge">)</text><text x="0" y="100.80000000000001" font-family="Cascadia, Segoe UI Emoji" font-size="28px" fill="#1e1e1e" text-anchor="start" style="white-space: pre;" direction="ltr" dominant-baseline="text-before-edge">SELECT *</text><text x="0" y="134.4" font-family="Cascadia, Segoe UI Emoji" font-size="28px" fill="#1e1e1e" text-anchor="start" style="white-space: pre;" direction="ltr" dominant-baseline="text-before-edge">FROM cte1 a, cte1 b;</text></g><g stroke-linecap="round" transform="translate(758.532986096831 324.1053419752344) rotate(0 86.39676864310104 177.36618106702497)"><path d="M1.97 -1.78 L171.77 0.9 L172.88 354.72 L-1.74 353.39" stroke="none" stroke-width="0" fill="#b2f2bb"></path><path d="M0 0 C48.41 2.39, 94.08 1.3, 172.79 0 M0 0 C69.65 -0.93, 136.87 -1.24, 172.79 0 M172.79 0 C174.84 96.49, 175.56 192.33, 172.79 354.73 M172.79 0 C173.03 72.7, 173.07 144.89, 172.79 354.73 M172.79 354.73 C137.58 351.91, 101.04 353.96, 0 354.73 M172.79 354.73 C137.7 356.57, 101.75 356.09, 0 354.73 M0 354.73 C-0.89 273.05, 0.26 190.12, 0 0 M0 354.73 C0.43 235.02, 0.25 114.41, 0 0" stroke="#1e1e1e" stroke-width="2" fill="none"></path></g><g transform="translate(812.117254739932 329.1053419752344) rotate(0 32.8125 33.60000000000002)"><text x="32.8125" y="0" font-family="Cascadia, Segoe UI Emoji" font-size="28px" fill="#1e1e1e" text-anchor="middle" style="white-space: pre;" direction="ltr" dominant-baseline="text-before-edge">cte1</text><text x="32.8125" y="33.6" font-family="Cascadia, Segoe UI Emoji" font-size="28px" fill="#1e1e1e" text-anchor="middle" style="white-space: pre;" direction="ltr" dominant-baseline="text-before-edge">a</text></g><g stroke-linecap="round"><g transform="translate(781.1690311797646 220.64934766878082) rotate(0 13.82904922523619 44.3698448562252)"><path d="M0 0 C8.06 24.41, 15.66 49.51, 27.66 88.74 M0 0 C10.32 33.28, 20.69 65.95, 27.66 88.74" stroke="#1e1e1e" stroke-width="2" fill="none"></path></g><g transform="translate(781.1690311797646 220.64934766878082) rotate(0 13.82904922523619 44.3698448562252)"><path d="M9.52 64.84 C14.8 71.11, 19.74 78.05, 27.66 88.74 M9.52 64.84 C16.42 73.95, 23.24 82.43, 27.66 88.74" stroke="#1e1e1e" stroke-width="2" fill="none"></path></g><g transform="translate(781.1690311797646 220.64934766878082) rotate(0 13.82904922523619 44.3698448562252)"><path d="M29.13 58.78 C28.93 66.78, 28.37 75.42, 27.66 88.74 M29.13 58.78 C28.7 70.15, 28.21 80.9, 27.66 88.74" stroke="#1e1e1e" stroke-width="2" fill="none"></path></g></g><mask></mask><g stroke-linecap="round" transform="translate(616.013352338924 709.183360372433) rotate(0 67.527664429472 135.46540739521754)"><path d="M-0.81 -1.01 L135.75 0.31 L134.68 270.57 L-1.6 269.81" stroke="none" stroke-width="0" fill="#a5d8ff"></path><path d="M0 0 C51.44 0.5, 104.21 -0.52, 135.06 0 M0 0 C45.55 -2.11, 89.34 -1.86, 135.06 0 M135.06 0 C134.56 70.31, 136.68 142.21, 135.06 270.93 M135.06 0 C133.65 99.12, 134.03 200.25, 135.06 270.93 M135.06 270.93 C87.34 269.89, 39.5 269.85, 0 270.93 M135.06 270.93 C97.92 272.11, 62.23 271.04, 0 270.93 M0 270.93 C-1.56 180.05, -2.68 85.29, 0 0 M0 270.93 C-0.77 177, 0.34 83.91, 0 0" stroke="#1e1e1e" stroke-width="2" fill="none"></path></g><g transform="translate(667.134766768396 714.183360372433) rotate(0 16.40625 16.799999999999955)"><text x="16.40625" y="0" font-family="Cascadia, Segoe UI Emoji" font-size="28px" fill="#1e1e1e" text-anchor="middle" style="white-space: pre;" direction="ltr" dominant-baseline="text-before-edge">t1</text></g><g stroke-linecap="round"><g transform="translate(881.9095210688475 683.4290701181961) rotate(0 -62.141313551184794 113.82258710548649)"><path d="M0 0 C-0.9 85.61, -1.4 169.89, -2.51 227.5 M-2.51 227.5 C-42.61 228, -80.68 227.17, -124.28 225.8" stroke="#1e1e1e" stroke-width="2.5" fill="none" stroke-dasharray="8 10"></path></g><g transform="translate(881.9095210688475 683.4290701181961) rotate(0 -62.141313551184794 113.82258710548649)"><path d="M-95.82 216.33 C-108.31 220.57, -118.46 223, -124.28 225.8" stroke="#1e1e1e" stroke-width="2.5" fill="none"></path></g><g transform="translate(881.9095210688475 683.4290701181961) rotate(0 -62.141313551184794 113.82258710548649)"><path d="M-96.39 236.85 C-108.84 233.39, -118.78 228.14, -124.28 225.8" stroke="#1e1e1e" stroke-width="2.5" fill="none"></path></g></g><mask></mask><g transform="translate(786.8896147858594 759.861014310496) rotate(0 41.015625 33.60000000000002)"><text x="41.015625" y="0" font-family="Cascadia, Segoe UI Emoji" font-size="28px" fill="#1e1e1e" text-anchor="middle" style="white-space: pre;" direction="ltr" dominant-baseline="text-before-edge">Built</text><text x="41.015625" y="33.6" font-family="Cascadia, Segoe UI Emoji" font-size="28px" fill="#1e1e1e" text-anchor="middle" style="white-space: pre;" direction="ltr" dominant-baseline="text-before-edge">on</text></g><g stroke-linecap="round"><g transform="translate(915.935338897105 219.94733652535672) rotate(0 -15.916450591040984 43.61325500798591)"><path d="M0 0 C-10.28 27.77, -20.84 55.42, -31.83 87.23 M0 0 C-12.58 33.71, -24.53 66.75, -31.83 87.23" stroke="#1e1e1e" stroke-width="2" fill="none"></path></g><g transform="translate(915.935338897105 219.94733652535672) rotate(0 -15.916450591040984 43.61325500798591)"><path d="M-31.97 57.23 C-31.9 66.68, -32.21 75.99, -31.83 87.23 M-31.97 57.23 C-32.17 68.92, -31.85 80, -31.83 87.23" stroke="#1e1e1e" stroke-width="2" fill="none"></path></g><g transform="translate(915.935338897105 219.94733652535672) rotate(0 -15.916450591040984 43.61325500798591)"><path d="M-12.65 64.16 C-18.76 71.38, -25.26 78.46, -31.83 87.23 M-12.65 64.16 C-20.26 73.23, -27.35 81.65, -31.83 87.23" stroke="#1e1e1e" stroke-width="2" fill="none"></path></g></g><mask></mask><g stroke-linecap="round"><g transform="translate(476.3974391851448 403.70632361869275) rotate(0 91.91882803326604 -0.015265673972066907)"><path d="M0 0 C59.08 0.02, 118.21 0.17, 183.84 0 M0 0 C38.42 -0.07, 76.66 -0.21, 183.84 0" stroke="#1e1e1e" stroke-width="4" fill="none"></path></g><g transform="translate(476.3974391851448 403.70632361869275) rotate(0 91.91882803326604 -0.015265673972066907)"><path d="M155.63 10.22 C164.78 7.03, 173.97 3.89, 183.84 0 M155.63 10.22 C161.58 8.2, 167.33 5.93, 183.84 0" stroke="#1e1e1e" stroke-width="4" fill="none"></path></g><g transform="translate(476.3974391851448 403.70632361869275) rotate(0 91.91882803326604 -0.015265673972066907)"><path d="M155.66 -10.3 C164.79 -6.91, 173.98 -3.46, 183.84 0 M155.66 -10.3 C161.58 -8.04, 167.32 -6.02, 183.84 0" stroke="#1e1e1e" stroke-width="4" fill="none"></path></g></g><mask></mask><g transform="translate(463.930387597448 352.59708371364763) rotate(0 123.046875 67.19999999999999)"><text x="123.046875" y="0" font-family="Cascadia, Segoe UI Emoji" font-size="28px" fill="#1e1e1e" text-anchor="middle" style="white-space: pre;" direction="ltr" dominant-baseline="text-before-edge">Using CTE Reuse</text><text x="123.046875" y="33.6" font-family="Cascadia, Segoe UI Emoji" font-size="28px" fill="#1e1e1e" text-anchor="middle" style="white-space: pre;" direction="ltr" dominant-baseline="text-before-edge"></text><text x="123.046875" y="67.2" font-family="Cascadia, Segoe UI Emoji" font-size="28px" fill="#1e1e1e" text-anchor="middle" style="white-space: pre;" direction="ltr" dominant-baseline="text-before-edge">Do not compute</text><text x="123.046875" y="100.80000000000001" font-family="Cascadia, Segoe UI Emoji" font-size="28px" fill="#1e1e1e" text-anchor="middle" style="white-space: pre;" direction="ltr" dominant-baseline="text-before-edge">cte1 twice</text></g></svg>
